<!-- Generated by IcoMoon.io -->
<svg version="1.1" xmlns="http://www.w3.org/2000/svg" width="768" height="768" viewBox="0 0 768 768">
<title></title>
<g id="icomoon-ignore">
</g>
<path d="M663.456 330.976l-294.080 294.080c-31.264 31.264-72.192 46.88-113.216 46.88s-81.952-15.616-113.216-46.88-46.88-72.192-46.88-113.216 15.616-81.952 46.88-113.216l294.080-294.080c18.752-18.752 43.296-28.128 67.936-28.128s49.152 9.376 67.936 28.128 28.128 43.296 28.128 67.936-9.376 49.152-28.128 67.936l-294.4 294.080c-6.272 6.272-14.432 9.408-22.656 9.408s-16.384-3.136-22.656-9.376-9.376-14.4-9.376-22.656 3.136-16.384 9.376-22.656l271.68-271.36c12.512-12.48 12.512-32.736 0.032-45.248s-32.736-12.512-45.248-0.032l-271.68 271.36c-18.752 18.752-28.128 43.392-28.128 67.904s9.376 49.152 28.128 67.904 43.392 28.128 67.904 28.128 49.152-9.376 67.904-28.128l294.4-294.080c31.264-31.264 46.88-72.256 46.88-113.184s-15.648-81.952-46.88-113.184-72.256-46.88-113.184-46.88-81.952 15.648-113.184 46.88l-294.080 294.080c-43.744 43.744-65.632 101.152-65.632 158.464s21.888 114.72 65.632 158.464 101.152 65.632 158.464 65.632 114.72-21.888 158.464-65.632l294.080-294.080c12.512-12.512 12.512-32.768 0-45.248s-32.768-12.512-45.248 0z"></path>
</svg>
